<?xml version="1.0" encoding="utf-8"?>
<!-- Generator: Adobe Illustrator 17.0.2, SVG Export Plug-In . SVG Version: 6.00 Build 0)  -->
<!DOCTYPE svg PUBLIC "-//W3C//DTD SVG 1.1//EN" "http://www.w3.org/Graphics/SVG/1.1/DTD/svg11.dtd">
<svg version="1.1" id="Calque_1" xmlns="http://www.w3.org/2000/svg" xmlns:xlink="http://www.w3.org/1999/xlink" x="0px" y="0px"
	 width="80.064px" height="90.248px" viewBox="0 0 80.064 90.248" enable-background="new 0 0 80.064 90.248" xml:space="preserve">
<g>
	<defs>
		<rect id="SVGID_1_" width="80.064" height="90.248"/>
	</defs>
	<clipPath id="SVGID_2_">
		<use xlink:href="#SVGID_1_"  overflow="visible"/>
	</clipPath>
	<path clip-path="url(#SVGID_2_)" d="M59.719,47.74c0.103-0.634,0.321-2.159,0.321-3.766c0-1.644-0.228-3.199-0.327-3.805
		c0.099-0.606,0.327-2.161,0.327-3.805c0-1.75-0.26-3.408-0.347-3.916c-0.088-5.821-10.698-8.962-20.686-8.962
		c-10.018,0-20.664,3.159-20.689,9.014c-0.095,0.565-0.337,2.163-0.337,3.854c0,1.644,0.228,3.199,0.328,3.805
		c-0.1,0.606-0.328,2.161-0.328,3.804c0,1.629,0.224,3.171,0.326,3.789c-0.101,0.604-0.304,2.012-0.326,3.522
		C8.063,52.127,0.25,60.458,0.25,70.592c0,10.7,8.705,19.406,19.405,19.406c7.487,0,13.986-4.27,17.22-10.497
		c0.722,0.031,1.438,0.052,2.131,0.052c0.346,0,0.683,0,1.021-0.01c0.375-0.008,0.749-0.017,1.115-0.042
		c0.162-0.001,0.319-0.009,0.492-0.017c0.035,0,0.068-0.001,0.103-0.004l1.065-0.075c0.274-0.018,0.535-0.041,0.866-0.072
		c9.452-0.889,15.68-4.205,16.003-8.472c0.028-0.158,0.371-2.054,0.371-4.064c0-1.605-0.223-3.184-0.332-3.836
		c0.27-1.691,0.332-3.008,0.332-3.817c0-1.138-0.114-2.436-0.33-3.805c0.214-1.345,0.33-2.659,0.33-3.808
		C60.043,49.892,59.815,48.333,59.719,47.74 M38.978,68.949c-0.136-1.603-0.47-3.148-0.973-4.617
		c0.333,0.005,0.661,0.016,1.003,0.016c7.12,0,13.571-1.462,17.298-3.915c0.037-0.019,0.071-0.04,0.104-0.063
		c0.008-0.005,0.014-0.01,0.02-0.014c0.217-0.147,0.401-0.293,0.592-0.44c-0.032,0.688-0.109,1.584-0.293,2.708
		c-0.023,0.107-0.036,0.216-0.036,0.32c0,0.008,0.002,0.014,0.002,0.021c-0.035,1.072-1.234,2.029-1.949,2.506
		c-0.024,0.016-0.047,0.031-0.069,0.05c-0.001,0-0.004,0.002-0.008,0.005c-1.953,1.285-5.032,2.312-8.579,2.883l-4.915,0.497
		C40.453,68.94,39.714,68.95,38.978,68.949 M39.007,41.555c6.96,0,14.218-1.525,18.012-4.418c-0.069,1.47-0.3,2.742-0.303,2.757
		c-0.003,0.018-0.002,0.036-0.005,0.054c-0.006,0.038-0.008,0.069-0.011,0.105c-0.003,0.037-0.009,0.073-0.009,0.111
		c-0.016,0.794-0.706,1.685-1.949,2.511c-3.197,2.147-9.227,3.481-15.734,3.481c-4.277,0-8.433-0.581-11.703-1.636
		c-0.271-0.088-0.554-0.203-0.866-0.353l-2.627-1.264c-0.591-0.284-1.048-0.575-1.396-0.888c-0.696-0.625-1.057-1.236-1.084-1.819
		c0-0.013-0.001-0.025-0.001-0.038c0-0.055-0.008-0.108-0.014-0.162c-0.004-0.038-0.002-0.075-0.01-0.113
		c-0.003-0.015-0.234-1.278-0.303-2.741C24.8,40.032,32.054,41.555,39.007,41.555 M23.283,50.286
		c-0.005-0.003-0.009-0.006-0.014-0.009c-0.855-0.576-1.862-1.47-1.94-2.503c0-0.012-0.003-0.024-0.003-0.036V47.72
		c0-0.03-0.007-0.058-0.009-0.088c-0.004-0.046-0.003-0.092-0.012-0.138c0-0.001-0.004-0.023-0.006-0.031
		c-0.004-0.022-0.007-0.044-0.012-0.066c-0.055-0.322-0.231-1.429-0.288-2.678c0.438,0.317,0.933,0.612,1.509,0.89l2.628,1.264
		c0.436,0.21,0.844,0.375,1.247,0.505c3.611,1.165,7.976,1.78,12.624,1.78c7.178,0,13.686-1.492,17.402-3.987
		c0.225-0.149,0.415-0.3,0.611-0.451c-0.055,1.232-0.226,2.321-0.285,2.665c-0.009,0.039-0.015,0.079-0.02,0.119v0.001v0.004
		c-0.012,0.072-0.023,0.144-0.023,0.219c0,0.006,0.002,0.011,0.002,0.017c0,0.005-0.002,0.011-0.002,0.016
		c-0.011,0.787-0.706,1.682-1.955,2.519c-0.212,0.142-0.436,0.28-0.674,0.415l-4.038,1.635c-3.19,0.932-6.999,1.424-11.017,1.424
		C32.517,53.754,26.491,52.424,23.283,50.286 M39.008,56.754c4.332,0,8.459-0.542,11.936-1.567c0.047-0.014,0.093-0.03,0.14-0.048
		l4.196-1.7c0.059-0.023,0.114-0.051,0.168-0.081c0.324-0.181,0.629-0.368,0.918-0.56c0.037-0.023,0.071-0.047,0.106-0.073
		c0.2-0.135,0.374-0.271,0.55-0.407c-0.032,0.688-0.11,1.582-0.292,2.702v0.002c-0.021,0.103-0.035,0.209-0.035,0.318
		c0,0.006,0.002,0.011,0.002,0.017c-0.018,0.776-0.677,1.646-1.862,2.458c-0.034,0.02-0.068,0.04-0.1,0.062
		c-3.187,2.142-9.213,3.472-15.726,3.472c-0.814,0-1.586-0.026-2.332-0.063c-1.016-1.848-2.336-3.501-3.873-4.922
		C34.774,56.618,36.861,56.754,39.008,56.754 M39.007,26.486c10.93,0,17.65,3.495,17.687,6.013
		c-0.001,0.018-0.002,0.036-0.002,0.055c-0.057,2.517-6.771,6-17.685,6c-10.875,0-17.576-3.459-17.68-5.974
		c0.001-0.037,0.001-0.074-0.001-0.111C21.414,29.953,28.12,26.486,39.007,26.486 M19.656,87C10.61,87,3.251,79.641,3.251,70.595
		s7.359-16.404,16.405-16.404c9.045,0,16.405,7.358,16.405,16.404S28.702,87,19.656,87 M43.323,76.354
		c-0.234,0.021-0.464,0.043-0.723,0.06l-1.034,0.072c-0.027,0-0.078,0.002-0.104,0.004c-0.161,0.009-0.317,0.006-0.48,0.017
		c-0.334,0.024-0.676,0.032-1.025,0.039c-0.307,0.009-0.606,0.009-0.913,0.009c-0.301-0.001-0.615-0.022-0.919-0.028
		c0.469-1.456,0.756-2.989,0.866-4.571h0.015c0.779,0,1.547-0.019,2.385-0.059l5.084-0.515c4.104-0.655,7.507-1.813,9.815-3.333
		c0.039-0.023,0.089-0.057,0.138-0.094c0.219-0.147,0.404-0.295,0.596-0.443c-0.064,1.494-0.304,2.803-0.306,2.818
		c-0.013,0.066-0.014,0.129-0.017,0.195c-0.001,0.013-0.005,0.025-0.005,0.039C56.633,72.798,51.636,75.572,43.323,76.354"/>
	<path clip-path="url(#SVGID_2_)" fill="none" stroke="#FFFFFF" stroke-width="0.5" stroke-miterlimit="10" d="M59.719,47.74
		c0.103-0.634,0.321-2.159,0.321-3.766c0-1.644-0.228-3.199-0.327-3.805c0.099-0.606,0.327-2.161,0.327-3.805
		c0-1.75-0.26-3.408-0.347-3.916c-0.088-5.821-10.698-8.962-20.686-8.962c-10.018,0-20.664,3.159-20.689,9.014
		c-0.095,0.565-0.337,2.163-0.337,3.854c0,1.644,0.228,3.199,0.328,3.805c-0.1,0.606-0.328,2.161-0.328,3.804
		c0,1.629,0.224,3.171,0.326,3.789c-0.101,0.604-0.304,2.012-0.326,3.522C8.063,52.127,0.25,60.458,0.25,70.592
		c0,10.7,8.705,19.406,19.405,19.406c7.487,0,13.986-4.27,17.22-10.497c0.722,0.031,1.438,0.052,2.131,0.052
		c0.346,0,0.683,0,1.021-0.01c0.375-0.008,0.749-0.017,1.115-0.042c0.162-0.001,0.319-0.009,0.492-0.017
		c0.035,0,0.068-0.001,0.103-0.004l1.065-0.075c0.274-0.018,0.535-0.041,0.866-0.072c9.452-0.889,15.68-4.205,16.003-8.472
		c0.028-0.158,0.371-2.054,0.371-4.064c0-1.605-0.223-3.184-0.332-3.836c0.27-1.691,0.332-3.008,0.332-3.817
		c0-1.138-0.114-2.436-0.33-3.805c0.214-1.345,0.33-2.659,0.33-3.808C60.043,49.892,59.815,48.333,59.719,47.74z M38.978,68.949
		c-0.136-1.603-0.47-3.148-0.973-4.617c0.333,0.005,0.661,0.016,1.003,0.016c7.12,0,13.571-1.462,17.298-3.915
		c0.037-0.019,0.071-0.04,0.104-0.063c0.008-0.005,0.014-0.01,0.02-0.014c0.217-0.147,0.401-0.293,0.592-0.44
		c-0.032,0.688-0.109,1.584-0.293,2.708c-0.023,0.107-0.036,0.216-0.036,0.32c0,0.008,0.002,0.014,0.002,0.021
		c-0.035,1.072-1.234,2.029-1.949,2.506c-0.024,0.016-0.047,0.031-0.069,0.05c-0.001,0-0.004,0.002-0.008,0.005
		c-1.953,1.285-5.032,2.312-8.579,2.883l-4.915,0.497C40.453,68.94,39.714,68.95,38.978,68.949z M39.007,41.555
		c6.96,0,14.218-1.525,18.012-4.418c-0.069,1.47-0.3,2.742-0.303,2.757c-0.003,0.018-0.002,0.036-0.005,0.054
		c-0.006,0.038-0.008,0.069-0.011,0.105c-0.003,0.037-0.009,0.073-0.009,0.111c-0.016,0.794-0.706,1.685-1.949,2.511
		c-3.197,2.147-9.227,3.481-15.734,3.481c-4.277,0-8.433-0.581-11.703-1.636c-0.271-0.088-0.554-0.203-0.866-0.353l-2.627-1.264
		c-0.591-0.284-1.048-0.575-1.396-0.888c-0.696-0.625-1.057-1.236-1.084-1.819c0-0.013-0.001-0.025-0.001-0.038
		c0-0.055-0.008-0.108-0.014-0.162c-0.004-0.038-0.002-0.075-0.01-0.113c-0.003-0.015-0.234-1.278-0.303-2.741
		C24.8,40.032,32.054,41.555,39.007,41.555z M23.283,50.286c-0.005-0.003-0.009-0.006-0.014-0.009
		c-0.855-0.576-1.862-1.47-1.94-2.503c0-0.012-0.003-0.024-0.003-0.036V47.72c0-0.03-0.007-0.058-0.009-0.088
		c-0.004-0.046-0.003-0.092-0.012-0.138c0-0.001-0.004-0.023-0.006-0.031c-0.004-0.022-0.007-0.044-0.012-0.066
		c-0.055-0.322-0.231-1.429-0.288-2.678c0.438,0.317,0.933,0.612,1.509,0.89l2.628,1.264c0.436,0.21,0.844,0.375,1.247,0.505
		c3.611,1.165,7.976,1.78,12.624,1.78c7.178,0,13.686-1.492,17.402-3.987c0.225-0.149,0.415-0.3,0.611-0.451
		c-0.055,1.232-0.226,2.321-0.285,2.665c-0.009,0.039-0.015,0.079-0.02,0.119v0.001v0.004c-0.012,0.072-0.023,0.144-0.023,0.219
		c0,0.006,0.002,0.011,0.002,0.017c0,0.005-0.002,0.011-0.002,0.016c-0.011,0.787-0.706,1.682-1.955,2.519
		c-0.212,0.142-0.436,0.28-0.674,0.415l-4.038,1.635c-3.19,0.932-6.999,1.424-11.017,1.424
		C32.517,53.754,26.491,52.424,23.283,50.286z M39.008,56.754c4.332,0,8.459-0.542,11.936-1.567c0.047-0.014,0.093-0.03,0.14-0.048
		l4.196-1.7c0.059-0.023,0.114-0.051,0.168-0.081c0.324-0.181,0.629-0.368,0.918-0.56c0.037-0.023,0.071-0.047,0.106-0.073
		c0.2-0.135,0.374-0.271,0.55-0.407c-0.032,0.688-0.11,1.582-0.292,2.702v0.002c-0.021,0.103-0.035,0.209-0.035,0.318
		c0,0.006,0.002,0.011,0.002,0.017c-0.018,0.776-0.677,1.646-1.862,2.458c-0.034,0.02-0.068,0.04-0.1,0.062
		c-3.187,2.142-9.213,3.472-15.726,3.472c-0.814,0-1.586-0.026-2.332-0.063c-1.016-1.848-2.336-3.501-3.873-4.922
		C34.774,56.618,36.861,56.754,39.008,56.754z M39.007,26.486c10.93,0,17.65,3.495,17.687,6.013
		c-0.001,0.018-0.002,0.036-0.002,0.055c-0.057,2.517-6.771,6-17.685,6c-10.875,0-17.576-3.459-17.68-5.974
		c0.001-0.037,0.001-0.074-0.001-0.111C21.414,29.953,28.12,26.486,39.007,26.486z M19.656,87C10.61,87,3.251,79.641,3.251,70.595
		s7.359-16.404,16.405-16.404c9.045,0,16.405,7.358,16.405,16.404S28.702,87,19.656,87z M43.323,76.354
		c-0.234,0.021-0.464,0.043-0.723,0.06l-1.034,0.072c-0.027,0-0.078,0.002-0.104,0.004c-0.161,0.009-0.317,0.006-0.48,0.017
		c-0.334,0.024-0.676,0.032-1.025,0.039c-0.307,0.009-0.606,0.009-0.913,0.009c-0.301-0.001-0.615-0.022-0.919-0.028
		c0.469-1.456,0.756-2.989,0.866-4.571h0.015c0.779,0,1.547-0.019,2.385-0.059l5.084-0.515c4.104-0.655,7.507-1.813,9.815-3.333
		c0.039-0.023,0.089-0.057,0.138-0.094c0.219-0.147,0.404-0.295,0.596-0.443c-0.064,1.494-0.304,2.803-0.306,2.818
		c-0.013,0.066-0.014,0.129-0.017,0.195c-0.001,0.013-0.005,0.025-0.005,0.039C56.633,72.798,51.636,75.572,43.323,76.354z"/>
	<rect x="0.481" y="37.029" clip-path="url(#SVGID_2_)" fill="#280CAD" width="13.371" height="3"/>
	<rect x="66.694" y="37.029" clip-path="url(#SVGID_2_)" fill="#280CAD" width="13.371" height="3"/>
	
		<rect x="9.808" y="14.511" transform="matrix(0.7071 0.7071 -0.7071 0.7071 16.1529 -6.9734)" clip-path="url(#SVGID_2_)" fill="#280CAD" width="13.371" height="3"/>
	<rect x="37.51" clip-path="url(#SVGID_2_)" fill="#280CAD" width="3" height="13.371"/>
	
		<rect x="54.841" y="14.512" transform="matrix(-0.7071 0.7071 -0.7071 -0.7071 116.3533 -16.1747)" clip-path="url(#SVGID_2_)" fill="#280CAD" width="13.371" height="3.001"/>
</g>
<g>
	<path fill="#280CAD" d="M10.334,70.1v-1.308h2.477c0.803-3.601,3.922-6.284,7.774-6.284c2.523,0,4.702,1.102,6.101,2.844
		l-1.88,1.468c-1.032-1.169-2.5-1.972-4.22-1.972c-2.522,0-4.563,1.651-5.274,3.944h5.871V70.1H10.334z M21.183,71.452v1.308h-5.779
		c0.802,2.133,2.775,3.623,5.183,3.623c1.743,0,3.28-0.803,4.266-2.063l1.88,1.49c-1.376,1.789-3.578,2.913-6.146,2.913
		c-3.738,0-6.811-2.522-7.706-5.963h-2.546v-1.308H21.183z"/>
</g>
<g>
	<defs>
		<rect id="SVGID_3_" width="80.064" height="90.248"/>
	</defs>
	<clipPath id="SVGID_4_">
		<use xlink:href="#SVGID_3_"  overflow="visible"/>
	</clipPath>
	<rect x="10.331" y="68.786" clip-path="url(#SVGID_4_)" fill="#280CAD" width="10.896" height="1.764"/>
	<rect x="10.331" y="71.428" clip-path="url(#SVGID_4_)" fill="#280CAD" width="10.896" height="1.764"/>
</g>
</svg>
