<?xml version="1.0" encoding="utf-8"?>
<!-- Generator: Adobe Illustrator 17.0.2, SVG Export Plug-In . SVG Version: 6.00 Build 0)  -->
<!DOCTYPE svg PUBLIC "-//W3C//DTD SVG 1.1//EN" "http://www.w3.org/Graphics/SVG/1.1/DTD/svg11.dtd">
<svg version="1.1" id="Capa_1" xmlns="http://www.w3.org/2000/svg" xmlns:xlink="http://www.w3.org/1999/xlink" x="0px" y="0px"
	 width="512px" height="512px" viewBox="-49 141 512 512" enable-background="new -49 141 512 512" xml:space="preserve">
<path d="M407,157H55c-22.056,0-40,17.944-40,40v160H-9c-13.232,0-24,10.768-24,24v232c0,13.232,10.768,24,24,24h168
	c13.232,0,24-10.768,24-24v-48h24v48c0,13.232,10.768,24,24,24h192c13.232,0,24-10.768,24-24v-88c0-13.232-10.768-24-24-24h-98.232
	l-10.664-32H407c22.056,0,40-17.944,40-40V197C447,174.944,429.056,157,407,157z M167,613c0,4.416-3.592,8-8,8H-9
	c-4.408,0-8-3.584-8-8v-16h184V613z M167,581H-17V413h184V581z M167,397H-17v-16c0-4.416,3.592-8,8-8h168c4.408,0,8,3.584,8,8V397z
	 M207,549h-24v-16h24V549z M208.472,517H183v-48h114.232l10.664,32H231C220.584,501,211.784,507.712,208.472,517z M239,621h-8
	c-4.408,0-8-3.584-8-8v-88c0-4.416,3.592-8,8-8h8V621z M415,517h8c4.408,0,8,3.584,8,8v88c0,4.416-3.592,8-8,8h-8V517z M399,517v104
	H255V517H399z M431,429c0,13.232-10.768,24-24,24H183v-40h248V429z M431,397H183v-16c0-13.232-10.768-24-24-24H31V197
	c0-13.232,10.768-24,24-24h352c13.232,0,24,10.768,24,24V397z"/>
<g id="smile_1_">
	<path fill="#FFB600" d="M254.475,269.706c0.008,0.247,0.037,0.488,0.037,0.736c0,13.037-10.569,23.606-23.606,23.606
		c-13.037,0-23.606-10.569-23.606-23.606c0-0.249,0.03-0.49,0.037-0.736h-25.004c0.311,26.566,21.932,48.01,48.573,48.01
		s48.262-21.444,48.573-48.01H254.475z"/>
</g>
<g id="smile_2_">
	<path fill="#FFB600" d="M96.417,478.84c0.008,0.247,0.037,0.488,0.037,0.736c0,13.037-10.569,23.606-23.606,23.606
		c-13.037,0-23.606-10.569-23.606-23.606c0-0.249,0.03-0.49,0.037-0.736H24.275c0.311,26.566,21.932,48.01,48.573,48.01
		s48.262-21.444,48.573-48.01H96.417z"/>
</g>
<g id="smile_4_">
	<path fill="#FFB600" d="M347.492,551.202c0.008,0.247,0.037,0.488,0.037,0.736c0,13.037-10.569,23.606-23.606,23.606
		c-13.037,0-23.606-10.569-23.606-23.606c0-0.249,0.03-0.49,0.037-0.736h-25.004c0.311,26.567,21.932,48.01,48.573,48.01
		c26.64,0,48.262-21.444,48.573-48.01H347.492z"/>
</g>
</svg>
