<?xml version="1.0" encoding="utf-8"?>
<!-- Generator: Adobe Illustrator 17.0.2, SVG Export Plug-In . SVG Version: 6.00 Build 0)  -->
<!DOCTYPE svg PUBLIC "-//W3C//DTD SVG 1.1//EN" "http://www.w3.org/Graphics/SVG/1.1/DTD/svg11.dtd">
<svg version="1.1" id="Calque_1" xmlns="http://www.w3.org/2000/svg" xmlns:xlink="http://www.w3.org/1999/xlink" x="0px" y="0px"
	 width="66px" height="56.002px" viewBox="0 0 66 56.002" enable-background="new 0 0 66 56.002" xml:space="preserve">
<g>
	<defs>
		<rect id="SVGID_1_" y="0" width="66" height="56.002"/>
	</defs>
	<clipPath id="SVGID_2_">
		<use xlink:href="#SVGID_1_"  overflow="visible"/>
	</clipPath>
	<path clip-path="url(#SVGID_2_)" d="M52,20h6.996C62.865,20,66,23.137,66,27.008v14.983C66,45.862,62.866,49,58.998,49H58v6
		c0,0.809-0.911,1.283-1.573,0.819L46.685,49H30.994C27.133,49,24,45.863,24,42.001V37h-2.729L9.504,43.864
		C8.837,44.253,8,43.772,8,43v-6H7.002C3.134,37,0,33.868,0,30.003V6.997C0,3.134,3.138,0,7.006,0h37.988
		C48.863,0,52,3.132,52,6.997V20z M20.496,35.136C20.649,35.047,20.823,35,21,35h24.001C47.761,35,50,32.76,50,30.003V6.997
		C50,4.237,47.76,2,44.994,2H7.006C4.242,2,2,4.239,2,6.997v23.006C2,32.763,4.239,35,7.002,35H9c0.552,0,1,0.447,1,1v5.258
		L20.496,35.136z M52,30.003C52,33.865,48.865,37,45.001,37H26v5.001C26,44.758,28.238,47,30.994,47H47
		c0.205,0,0.405,0.063,0.573,0.18L56,53.079V48c0-0.552,0.447-1,1-1h1.998C61.761,47,64,44.758,64,41.991V27.008
		C64,24.242,61.76,22,58.996,22H52V30.003z"/>
</g>
<g>
	<defs>
		<rect id="SVGID_3_" y="0" width="66" height="56.002"/>
	</defs>
	<clipPath id="SVGID_4_">
		<use xlink:href="#SVGID_3_"  overflow="visible"/>
	</clipPath>
	<path clip-path="url(#SVGID_4_)" fill="#19B055" d="M19.88,19.765c0,1.246-1.01,2.255-2.255,2.255
		c-1.246,0-2.255-1.009-2.255-2.255c0-1.246,1.009-2.255,2.255-2.255C18.87,17.51,19.88,18.519,19.88,19.765"/>
	<path clip-path="url(#SVGID_4_)" fill="#19B055" d="M28.391,19.765c0,1.246-1.01,2.255-2.255,2.255
		c-1.246,0-2.256-1.009-2.256-2.255c0-1.246,1.01-2.255,2.256-2.255C27.381,17.51,28.391,18.519,28.391,19.765"/>
	<path clip-path="url(#SVGID_4_)" fill="#19B055" d="M36.901,19.765c0,1.246-1.01,2.255-2.255,2.255s-2.255-1.009-2.255-2.255
		c0-1.246,1.01-2.255,2.255-2.255S36.901,18.519,36.901,19.765"/>
</g>
</svg>
