<?xml version="1.0" encoding="utf-8"?>
<!-- Generator: Adobe Illustrator 17.0.2, SVG Export Plug-In . SVG Version: 6.00 Build 0)  -->
<!DOCTYPE svg PUBLIC "-//W3C//DTD SVG 1.1//EN" "http://www.w3.org/Graphics/SVG/1.1/DTD/svg11.dtd">
<svg version="1.1" id="Calque_1" xmlns="http://www.w3.org/2000/svg" xmlns:xlink="http://www.w3.org/1999/xlink" x="0px" y="0px"
	 width="94.671px" height="86.787px" viewBox="0 0 94.671 86.787" enable-background="new 0 0 94.671 86.787" xml:space="preserve">
<g>
	<defs>
		<rect id="SVGID_1_" width="94.671" height="86.787"/>
	</defs>
	<clipPath id="SVGID_2_">
		<use xlink:href="#SVGID_1_"  overflow="visible"/>
	</clipPath>
	<path clip-path="url(#SVGID_2_)" d="M29.636,85.742C19.434,84.62,10.017,80.411,2.402,73.569c-0.517-0.464-0.801-1.132-0.777-1.825
		c0.023-0.695,0.353-1.344,0.9-1.771c1.699-1.329,9.37-7.337,14.55-11.575c0.044-0.036,0.04-0.102-0.006-0.137
		C7.757,51.089,2.376,43.035,1.062,34.284c-1.823-12.129,4.933-20.981,5.221-21.353c0.728-0.936,2.038-1.183,3.058-0.574
		L37.49,29.155c0.071,0.042,0.152-0.024,0.126-0.102c-0.958-2.907-1.293-6.028-0.945-9.195C37.829,9.323,47.641,0.75,58.541,0.75
		c2.466,0,4.852,0.445,7.091,1.323c6.623,2.597,11.717,7.956,14.81,15.545c0.012,0.03,0.039,0.051,0.072,0.054l11.139,1.225
		c0.788,0.087,1.548,0.483,1.947,1.169c0.6,1.038,0.329,2.308-0.558,3.018l-9.475,7.595c-0.022,0.019-0.035,0.047-0.032,0.077
		c0.371,3.894,0.346,7.959-0.081,11.84C80.728,67.36,59.911,86.036,35.03,86.037h-0.002C33.24,86.039,31.425,85.938,29.636,85.742
		 M78.792,22.209h-0.007c-0.971,0-1.866-0.604-2.208-1.551c-2.58-7.146-6.839-11.928-12.66-14.212
		c-1.689-0.663-3.499-0.998-5.376-0.998c-8.579,0-16.297,6.695-17.202,14.923c-0.59,5.363,1.324,10.558,5.253,14.263
		c0.616,0.58,0.954,1.429,0.749,2.25c-0.419,1.676-2.204,2.305-3.512,1.524L8.961,17.6c-0.043-0.026-0.098-0.015-0.123,0.03
		c-1.614,2.857-4.227,8.814-3.121,16.024c1.253,8.175,6.841,15.792,16.608,22.639c0.597,0.419,0.965,1.091,0.998,1.817
		c0.032,0.73-0.275,1.432-0.833,1.901C18.707,63.2,11.648,68.779,7.781,71.82c-0.047,0.036-0.043,0.105,0.003,0.141
		c6.449,5.068,14.123,8.203,22.365,9.109c1.62,0.181,3.261,0.271,4.878,0.271h0.002c22.483-0.001,41.292-16.878,43.755-39.257
		c0.435-3.954,0.419-8.114-0.05-12.04c-0.101-0.849,0.225-1.69,0.892-2.225l5.883-4.716c0.062-0.05,0.033-0.15-0.046-0.159
		L78.792,22.209z"/>
	<path clip-path="url(#SVGID_2_)" fill="none" stroke="#FFFFFF" stroke-width="1.5" stroke-miterlimit="10" d="M29.636,85.742
		C19.434,84.62,10.017,80.411,2.402,73.569c-0.517-0.464-0.801-1.132-0.777-1.825c0.023-0.695,0.353-1.344,0.9-1.771
		c1.699-1.329,9.37-7.337,14.55-11.575c0.044-0.036,0.04-0.102-0.006-0.137C7.757,51.089,2.376,43.035,1.062,34.284
		c-1.823-12.129,4.933-20.981,5.221-21.353c0.728-0.936,2.038-1.183,3.058-0.574L37.49,29.155c0.071,0.042,0.152-0.024,0.126-0.102
		c-0.958-2.907-1.293-6.028-0.945-9.195C37.829,9.323,47.641,0.75,58.541,0.75c2.466,0,4.852,0.445,7.091,1.323
		c6.623,2.597,11.717,7.956,14.81,15.545c0.012,0.03,0.039,0.051,0.072,0.054l11.139,1.225c0.788,0.087,1.548,0.483,1.947,1.169
		c0.6,1.038,0.329,2.308-0.558,3.018l-9.475,7.595c-0.022,0.019-0.035,0.047-0.032,0.077c0.371,3.894,0.346,7.959-0.081,11.84
		C80.728,67.36,59.911,86.036,35.03,86.037h-0.002C33.24,86.039,31.425,85.938,29.636,85.742z M78.792,22.209h-0.007
		c-0.971,0-1.866-0.604-2.208-1.551c-2.58-7.146-6.839-11.928-12.66-14.212c-1.689-0.663-3.499-0.998-5.376-0.998
		c-8.579,0-16.297,6.695-17.202,14.923c-0.59,5.363,1.324,10.558,5.253,14.263c0.616,0.58,0.954,1.429,0.749,2.25
		c-0.419,1.676-2.204,2.305-3.512,1.524L8.961,17.6c-0.043-0.026-0.098-0.015-0.123,0.03c-1.614,2.857-4.227,8.814-3.121,16.024
		c1.253,8.175,6.841,15.792,16.608,22.639c0.597,0.419,0.965,1.091,0.998,1.817c0.032,0.73-0.275,1.432-0.833,1.901
		C18.707,63.2,11.648,68.779,7.781,71.82c-0.047,0.036-0.043,0.105,0.003,0.141c6.449,5.068,14.123,8.203,22.365,9.109
		c1.62,0.181,3.261,0.271,4.878,0.271h0.002c22.483-0.001,41.292-16.878,43.755-39.257c0.435-3.954,0.419-8.114-0.05-12.04
		c-0.101-0.849,0.225-1.69,0.892-2.225l5.883-4.716c0.062-0.05,0.033-0.15-0.046-0.159L78.792,22.209z"/>
	
		<rect x="17.195" y="41.016" transform="matrix(0.8573 0.5149 -0.5149 0.8573 26.4186 -8.5679)" clip-path="url(#SVGID_2_)" fill="#FF604B" width="22.936" height="4.698"/>
	<path clip-path="url(#SVGID_2_)" fill="none" stroke="#FF604B" stroke-width="4" stroke-miterlimit="10" d="M24.373,73.191
		c0,0,40.627,4.093,44.392-35.338"/>
	<path clip-path="url(#SVGID_2_)" d="M70.962,20.01c0,1.992-1.615,3.607-3.607,3.607c-1.992,0-3.607-1.615-3.607-3.607
		c0-1.992,1.615-3.607,3.607-3.607C69.347,16.403,70.962,18.018,70.962,20.01"/>
</g>
</svg>
